# Alias OBJ Model File
# Exported from SketchUp, (c) 2000-2012 Trimble Navigation Limited
# File units = meters

mtllib die_face_solid.mtl

g Mesh1 Model

usemtl FrontColor
v 0.000855514 0.999144 -0.0869474
vt -3.41359 39.3364
vn -0.991445 0 0.130526
v 1.12799e-17 1 -0.1
vt -3.92858 39.3701
vn -0.997859 0 0.0654031
v 1.12799e-17 0 -0.1
vt -3.92858 0
v 0.000855514 0.000855514 -0.0869474
vt -3.41359 0.0336816
f 1/1/1 2/2/2 3/3/2 4/4/1 

v 0.999144 0.999144 -0.0869474
vt 39.3364 5.98852
vn 3.34077e-20 0.991445 0.130526
v 1 1 -0.1
vt 39.3701 6.5035
vn -1.54657e-20 0.997859 0.0654031
v 0.1 1 -0.1
vt 3.93701 6.5035
vt 4.43158e-16 6.5035
vt 0.0336816 5.98852
v 0.1 0.999144 -0.0869474
vt 3.93701 5.98852
f 5/5/3 6/6/4 7/7/4 2/8/4 1/9/3 8/10/3 

v 0.999144 0.000855514 -0.0869474
vt 5.98852 0.0336816
vn 0.991445 0 0.130526
v 1 0 -0.1
vt 6.5035 0
vn 0.997859 0 0.0654031
vt 6.5035 39.3701
vt 5.98852 39.3364
f 9/11/5 10/12/6 6/13/6 5/14/5 

vt 39.3364 -3.41359
vn -9.71775e-20 -0.991445 0.130526
v 0.1 0.000855514 -0.0869474
vt 3.93701 -3.41359
vt 0.0336816 -3.41359
vt 4.42227e-16 -3.92858
vn -3.09313e-20 -0.997859 0.0654031
v 0.1 0 -0.1
vt 3.93701 -3.92858
vt 39.3701 -3.92858
f 9/15/7 11/16/7 4/17/7 3/18/8 12/19/8 10/20/8 

v 0.996593 0.00340742 -0.0741181
vt 39.2359 -2.83579
vn -8.16787e-20 -0.965926 0.258819
v 0.1 0.00340742 -0.0741181
vt 3.93701 -2.83579
v 0.00340742 0.00340742 -0.0741181
vt 0.13415 -2.83579
vt 0.0336816 -3.35078
vt 3.93701 -3.35078
vt 39.3364 -3.35078
f 13/21/9 14/22/9 15/23/9 4/24/7 11/25/7 9/26/7 

v 0.992388 0.00761205 -0.0617317
vt 39.0704 -2.20507
vn 1.0988e-19 -0.92388 0.382683
v 0.1 0.00761205 -0.0617317
vt 3.93701 -2.20507
v 0.00761205 0.00761205 -0.0617317
vt 0.299687 -2.20507
vt 0.13415 -2.72005
vt 3.93701 -2.72005
vt 39.2359 -2.72005
f 16/27/10 17/28/10 18/29/10 15/30/9 14/31/9 13/32/9 

v 0.986603 0.0133975 -0.05
vt 38.8426 -1.53221
vn 2.83574e-19 -0.866025 0.5
v 0.1 0.0133975 -0.05
vt 3.93701 -1.53221
v 0.0133975 0.0133975 -0.05
vt 0.527459 -1.53221
vt 0.299687 -2.04719
vt 3.93701 -2.04719
vt 39.0704 -2.04719
f 19/33/11 20/34/11 21/35/11 18/36/10 17/37/10 16/38/10 

v 0.979335 0.0206647 -0.0391239
vt 38.5565 -0.828725
vn 1.25335e-19 -0.793353 0.608761
v 0.1 0.0206647 -0.0391239
vt 3.93701 -0.828725
v 0.0206647 0.0206647 -0.0391239
vt 0.81357 -0.828725
vt 0.527459 -1.34371
vt 3.93701 -1.34371
vt 38.8426 -1.34371
f 22/39/12 23/40/12 24/41/12 21/42/11 20/43/11 19/44/11 

v 0.0292893 0.0292893 -0.0292893
vt 1.15312 -0.106657
vn -1.8581e-19 -0.707107 0.707107
vt 0.81357 -0.621642
vt 3.93701 -0.621642
vt 38.5565 -0.621642
v 0.970711 0.0292893 -0.0292893
vt 38.217 -0.106657
v 0.1 0.0292893 -0.0292893
vt 3.93701 -0.106657
f 25/45/13 24/46/12 23/47/12 22/48/12 26/49/13 27/50/13 

v 0.0292893 0.970711 -0.0292893
vt -0.106657 38.217
vn -0.707107 0 0.707107
v 0.0206647 0.979335 -0.0391239
vt -0.621642 38.5565
vn -0.793353 0 0.608761
vt -0.621642 0.81357
vt -0.106657 1.15312
f 28/51/14 29/52/15 24/53/15 25/54/14 

v 0.970711 0.970711 -0.0292893
vt 38.217 26.0652
vn -3.3516e-19 0.707107 0.707107
v 0.979335 0.979335 -0.0391239
vt 38.5565 26.5801
vn -2.52348e-20 0.793353 0.608761
v 0.1 0.979335 -0.0391239
vt 3.93701 26.5801
vt 0.81357 26.5801
vt 1.15312 26.0652
v 0.1 0.970711 -0.0292893
vt 3.93701 26.0652
f 30/55/16 31/56/17 32/57/17 29/58/17 28/59/16 33/60/16 

vt 26.0652 1.15312
vn 0.707107 0 0.707107
vt 26.5801 0.81357
vn 0.793353 0 0.608761
vt 26.5801 38.5565
vt 26.0652 38.217
f 26/61/18 22/62/19 31/63/19 30/64/18 

vt 22.7016 0.81357
vt 23.2166 0.527459
vn 0.866025 0 0.5
v 0.986603 0.986603 -0.05
vt 23.2166 38.8426
vt 22.7016 38.5565
f 22/65/19 19/66/20 34/67/20 31/68/19 

vt 18.9451 0.527459
vt 19.4601 0.299687
vn 0.92388 0 0.382683
v 0.992388 0.992388 -0.0617317
vt 19.4601 39.0704
vt 18.9451 38.8426
f 19/69/20 16/70/21 35/71/21 34/72/20 

vt 14.8602 0.299687
vt 15.3752 0.13415
vn 0.965926 0 0.258819
v 0.996593 0.996593 -0.0741181
vt 15.3752 39.2359
vt 14.8602 39.0704
f 16/73/21 13/74/22 36/75/22 35/76/21 

vt 10.5165 0.13415
vt 11.0315 0.0336816
vt 11.0315 39.3364
vt 10.5165 39.2359
f 13/77/22 9/78/5 5/79/5 36/80/22 

vt 39.2359 10.5165
vn 5.13639e-20 0.965926 0.258819
vt 39.3364 11.0315
vt 3.93701 11.0315
vt 0.0336816 11.0315
v 0.00340742 0.996593 -0.0741181
vt 0.13415 10.5165
v 0.1 0.996593 -0.0741181
vt 3.93701 10.5165
f 36/81/23 5/82/3 8/83/3 1/84/3 37/85/23 38/86/23 

vt -2.83579 39.2359
vn -0.965926 0 0.258819
vt -3.35078 39.3364
vt -3.35078 0.0336816
vt -2.83579 0.13415
f 37/87/24 1/88/1 4/89/1 15/90/24 

v 0.00761205 0.992388 -0.0617317
vt -2.20507 39.0704
vn -0.92388 0 0.382683
vt -2.72005 39.2359
vt -2.72005 0.13415
vt -2.20507 0.299687
f 39/91/25 37/92/24 15/93/24 18/94/25 

vt 39.0704 14.8602
vn -4.47334e-20 0.92388 0.382683
vt 39.2359 15.3752
vt 3.93701 15.3752
vt 0.13415 15.3752
vt 0.299687 14.8602
v 0.1 0.992388 -0.0617317
vt 3.93701 14.8602
f 35/95/26 36/96/23 38/97/23 37/98/23 39/99/26 40/100/26 

vt 38.8426 18.9451
vn -1.99181e-20 0.866025 0.5
vt 39.0704 19.4601
vt 3.93701 19.4601
vt 0.299687 19.4601
v 0.0133975 0.986603 -0.05
vt 0.527459 18.9451
v 0.1 0.986603 -0.05
vt 3.93701 18.9451
f 34/101/27 35/102/26 40/103/26 39/104/26 41/105/27 42/106/27 

vt -1.53221 38.8426
vn -0.866025 0 0.5
vt -2.04719 39.0704
vt -2.04719 0.299687
vt -1.53221 0.527459
f 41/107/28 39/108/25 18/109/25 21/110/28 

vt -0.828725 38.5565
vt -1.34371 38.8426
vt -1.34371 0.527459
vt -0.828725 0.81357
f 29/111/15 41/112/28 21/113/28 24/114/15 

vt 38.5565 22.7016
vt 38.8426 23.2166
vt 3.93701 23.2166
vt 0.527459 23.2166
vt 0.81357 22.7016
vt 3.93701 22.7016
f 31/115/17 34/116/27 42/117/27 41/118/27 29/119/17 32/120/17 

v 0.960876 0.0391239 -0.0206647
vt 28.9784 1.54031
vn 0.608761 0 0.793353
vt 29.4933 1.15312
vt 29.4933 38.217
v 0.960876 0.960876 -0.0206647
vt 28.9784 37.8298
f 43/121/29 26/122/18 30/123/18 44/124/29 

v 0.0391239 0.0391239 -0.0206647
vt 1.54031 0.621642
vn -1.56696e-19 -0.608761 0.793353
vt 1.15312 0.106657
vt 3.93701 0.106657
vt 38.217 0.106657
vt 37.8298 0.621642
v 0.1 0.0391239 -0.0206647
vt 3.93701 0.621642
f 45/125/30 25/126/13 27/127/13 26/128/13 43/129/30 46/130/30 

v 0.0391239 0.960876 -0.0206647
vt 0.621642 37.8298
vn -0.608761 0 0.793353
vt 0.106657 38.217
vt 0.106657 1.15312
vt 0.621642 1.54031
f 47/131/31 28/132/14 25/133/14 45/134/31 

vt 1.54031 28.9784
vn -8.40142e-20 0.608761 0.793353
v 0.1 0.960876 -0.0206647
vt 3.93701 28.9784
vt 37.8298 28.9784
vt 38.217 29.4933
vt 3.93701 29.4933
vt 1.15312 29.4933
f 47/135/32 48/136/32 44/137/32 30/138/16 33/139/16 28/140/16 

v 0.95 0.95 -0.0133975
vt 37.4016 31.3913
vn -1.76535e-21 0.5 0.866025
vt 37.8298 31.9063
vt 3.93701 31.9063
vt 1.54031 31.9063
v 0.05 0.95 -0.0133975
vt 1.9685 31.3913
v 0.1 0.95 -0.0133975
vt 3.93701 31.3913
f 49/141/33 44/142/32 48/143/32 47/144/32 50/145/33 51/146/33 

v 0.95 0.05 -0.0133975
vt 31.3913 1.9685
vn 0.5 0 0.866025
vt 31.9063 1.54031
vt 31.9063 37.8298
vt 31.3913 37.4016
f 52/147/34 43/148/29 44/149/29 49/150/34 

v 0.05 0.05 -0.0133975
vt 1.9685 1.34371
vn -1.47681e-19 -0.5 0.866025
vt 1.54031 0.828725
vt 3.93701 0.828725
vt 37.8298 0.828725
vt 37.4016 1.34371
v 0.1 0.05 -0.0133975
vt 3.93701 1.34371
f 53/151/35 45/152/30 46/153/30 43/154/30 52/155/35 54/156/35 

vt 1.34371 37.4016
vn -0.5 0 0.866025
vt 0.828725 37.8298
vt 0.828725 1.54031
vt 1.34371 1.9685
f 50/157/36 47/158/31 45/159/31 53/160/36 

v 0.0617317 0.938268 -0.00761205
vt 2.04719 36.9397
vn -0.382683 0 0.92388
vt 1.53221 37.4016
vt 1.53221 1.9685
v 0.0617317 0.0617317 -0.00761205
vt 2.04719 2.43038
f 55/161/37 50/162/36 53/163/36 56/164/37 

v 0.938268 0.938268 -0.00761205
vt 36.9397 33.2628
vn -9.15399e-18 0.382683 0.92388
vt 37.4016 33.7777
vt 3.93701 33.7777
vt 1.9685 33.7777
vt 2.43038 33.2628
v 0.1 0.938268 -0.00761205
vt 3.93701 33.2628
f 57/165/38 49/166/33 51/167/33 50/168/33 55/169/38 58/170/38 

v 0.938268 0.0617317 -0.00761205
vt 33.2628 2.43038
vn 0.382683 0 0.92388
vt 33.7777 1.9685
vt 33.7777 37.4016
vt 33.2628 36.9397
f 59/171/39 52/172/34 49/173/34 57/174/39 

vt 36.9397 2.04719
vn -1.86558e-19 -0.382683 0.92388
v 0.1 0.0617317 -0.00761205
vt 3.93701 2.04719
vt 2.43038 2.04719
vt 1.9685 1.53221
vt 3.93701 1.53221
vt 37.4016 1.53221
f 59/175/40 60/176/40 56/177/40 53/178/35 54/179/35 52/180/35 

v 0.0741181 0.0741181 -0.00340742
vt 2.91804 2.72005
vn -1.19058e-20 -0.258819 0.965926
vt 2.43038 2.20507
vt 3.93701 2.20507
vt 36.9397 2.20507
v 0.925882 0.0741181 -0.00340742
vt 36.452 2.72005
v 0.1 0.0741181 -0.00340742
vt 3.93701 2.72005
f 61/181/41 56/182/40 60/183/40 59/184/40 62/185/41 63/186/41 

v 0.0741181 0.925882 -0.00340742
vt 2.72005 36.452
vn -0.258819 0 0.965926
vt 2.20507 36.9397
vt 2.20507 2.43038
vt 2.72005 2.91804
f 64/187/42 55/188/37 56/189/37 61/190/42 

v 0.925882 0.925882 -0.00340742
vt 36.452 34.5607
vn -1.45714e-17 0.258819 0.965926
vt 36.9397 35.0756
vt 3.93701 35.0756
vt 2.43038 35.0756
vt 2.91804 34.5607
v 0.1 0.925882 -0.00340742
vt 3.93701 34.5607
f 65/191/43 57/192/38 58/193/38 55/194/38 64/195/43 66/196/43 

vt 34.5607 2.91804
vn 0.258819 0 0.965926
vt 35.0756 2.43038
vt 35.0756 36.9397
vt 34.5607 36.452
f 62/197/44 59/198/39 57/199/39 65/200/44 

v 0.913053 0.0869474 -0.000855514
vt 35.2628 3.42313
vn 0.130526 0 0.991445
vt 35.7778 2.91804
vt 35.7778 36.452
v 0.913053 0.913053 -0.000855514
vt 35.2628 35.947
f 67/201/45 62/202/44 65/203/44 68/204/45 

v 0.0869474 0.0869474 -0.000855514
vt 3.42313 3.35078
vn 4.62157e-20 -0.130526 0.991445
vt 2.91804 2.83579
vt 3.93701 2.83579
vt 36.452 2.83579
vt 35.947 3.35078
v 0.1 0.0869474 -0.000855514
vt 3.93701 3.35078
f 69/205/46 61/206/41 63/207/41 62/208/41 67/209/46 70/210/46 

v 0.0869474 0.913053 -0.000855514
vt 3.35078 35.947
vn -0.130526 0 0.991445
vt 2.83579 36.452
vt 2.83579 2.91804
vt 3.35078 3.42313
f 71/211/47 64/212/42 61/213/42 69/214/47 

vt 35.947 35.2628
vn -8.71919e-18 0.130526 0.991445
vt 36.452 35.7778
vt 3.93701 35.7778
vt 2.91804 35.7778
vt 3.42313 35.2628
v 0.1 0.913053 -0.000855514
vt 3.93701 35.2628
f 68/215/48 65/216/43 66/217/43 64/218/43 71/219/48 72/220/48 

v 0.9 0.9 -0
vt 35.4331 35.3572
vn -6.2049e-18 0.0654031 0.997859
vt 35.947 35.8722
vt 3.93701 35.8722
vt 3.42313 35.8722
v 0.1 0.9 -0
vt 3.93701 35.3572
f 73/221/49 68/222/48 72/223/48 71/224/48 74/225/49 

v 0.9 0.1 -0
vt 35.3572 3.93701
vn 0.0654031 0 0.997859
vt 35.8722 3.42313
vt 35.8722 35.947
vt 35.3572 35.4331
f 75/226/50 67/227/45 68/228/45 73/229/50 

v 0.1 0.1 -0
vt 3.93701 3.92858
vn 0 -0.0654031 0.997859
vt 3.42313 3.41359
vt 3.93701 3.41359
vt 35.947 3.41359
vt 35.4331 3.92858
f 76/230/51 69/231/46 70/232/46 67/233/46 75/234/51 

vt 3.92858 35.4331
vn -0.0654031 0 0.997859
vt 3.41359 35.947
vt 3.41359 3.42313
vt 3.92858 3.93701
f 74/235/52 71/236/47 69/237/47 76/238/52 

vt 3.93701 35.4331
vn 0 0 1
vt 3.93701 3.93701
vt 35.4331 3.93701
vt 35.4331 35.4331
f 74/239/53 76/240/53 75/241/53 73/242/53 

vt -4.44089e-16 39.3701
vn 0 0 -1
vt -3.93701 39.3701
vt -39.3701 39.3701
vt -39.3701 0
vt -3.93701 0
vt -4.44089e-16 0
f 2/243/54 7/244/54 6/245/54 10/246/54 12/247/54 3/248/54 

